Aleo-Light Italic.ufo
<glyph name="quotedbl" format="1">
  <advance width="323"/>
  <unicode hex="0022"/>
  <note>
    quotedbl
  </note>
  <outline>
    <contour>
      <point x="130" y="708" type="line"/>
      <point x="89" y="708" type="line"/>
      <point x="71" y="562" type="line"/>
      <point x="66" y="485" type="line"/>
      <point x="66" y="478"/>
      <point x="67" y="467"/>
      <point x="80" y="467" type="curve" smooth="yes"/>
      <point x="90" y="467"/>
      <point x="97" y="476"/>
      <point x="99" y="485" type="curve" smooth="yes"/>
      <point x="112" y="562" type="line"/>
    </contour>
    <contour>
      <point x="275" y="708" type="line"/>
      <point x="234" y="708" type="line"/>
      <point x="216" y="562" type="line"/>
      <point x="211" y="485" type="line"/>
      <point x="211" y="478"/>
      <point x="212" y="467"/>
      <point x="225" y="467" type="curve" smooth="yes"/>
      <point x="235" y="467"/>
      <point x="242" y="476"/>
      <point x="244" y="485" type="curve" smooth="yes"/>
      <point x="257" y="562" type="line"/>
    </contour>
  </outline>
</glyph>
<glyph name="dollar" format="1">
  <advance width="525"/>
  <unicode hex="0024"/>
  <note>
    dollar
  </note>
  <outline>
    <contour>
      <point x="176" y="-128" type="line"/>
      <point x="194" y="-128" type="line" smooth="yes"/>
      <point x="204" y="-128"/>
      <point x="208" y="-122"/>
      <point x="210" y="-113" type="curve"/>
      <point x="229" y="-8" type="line"/>
      <point x="360" y="0"/>
      <point x="452" y="81"/>
      <point x="469" y="206" type="curve"/>
      <point x="480" y="315"/>
      <point x="415" y="348"/>
      <point x="297" y="387" type="curve"/>
      <point x="346" y="673" type="line"/>
      <point x="390" y="669"/>
      <point x="432" y="652"/>
      <point x="460" y="624" type="curve" smooth="yes"/>
      <point x="469" y="615"/>
      <point x="479" y="613"/>
      <point x="489" y="624" type="curve"/>
      <point x="502" y="641" type="line"/>
      <point x="464" y="686"/>
      <point x="413" y="709"/>
      <point x="353" y="713" type="curve"/>
      <point x="371" y="814" type="line"/>
      <point x="353" y="814" type="line" smooth="yes"/>
      <point x="345" y="814"/>
      <point x="338" y="806"/>
      <point x="336" y="798" type="curve" smooth="yes"/>
      <point x="321" y="714" type="line"/>
      <point x="213" y="710"/>
      <point x="115" y="642"/>
      <point x="101" y="532" type="curve" smooth="yes"/>
      <point x="88" y="428"/>
      <point x="148" y="385"/>
      <point x="259" y="350" type="curve"/>
      <point x="204" y="32" type="line"/>
      <point x="144" y="34"/>
      <point x="100" y="60"/>
      <point x="54" y="106" type="curve" smooth="yes"/>
      <point x="47" y="113"/>
      <point x="38" y="115"/>
      <point x="29" y="104" type="curve"/>
      <point x="13" y="84" type="line"/>
      <point x="58" y="26"/>
      <point x="122" y="-4"/>
      <point x="197" y="-8" type="curve"/>
    </contour>
    <contour>
      <point x="410" y="101"/>
      <point x="336" y="39"/>
      <point x="236" y="32" type="curve"/>
      <point x="289" y="341" type="line"/>
      <point x="369" y="316"/>
      <point x="434" y="283"/>
      <point x="423" y="199" type="curve" smooth="yes"/>
    </contour>
    <contour>
      <point x="155" y="614"/>
      <point x="225" y="670"/>
      <point x="314" y="674" type="curve"/>
      <point x="266" y="398" type="line"/>
      <point x="188" y="424"/>
      <point x="135" y="460"/>
      <point x="146" y="536" type="curve" smooth="yes"/>
    </contour>
  </outline>
</glyph>
<glyph name="Q" format="1">
  <advance width="747"/>
  <unicode hex="0051"/>
  <note>
    Q
  </note>
  <outline>
    <contour>
      <point x="738" y="563"/>
      <point x="625" y="716"/>
      <point x="418" y="716" type="curve" smooth="yes"/>
      <point x="216" y="716"/>
      <point x="64" y="566"/>
      <point x="37" y="354" type="curve" smooth="yes"/>
      <point x="10" y="143"/>
      <point x="125" y="-8"/>
      <point x="329" y="-8" type="curve" smooth="yes"/>
      <point x="370" y="-8"/>
      <point x="437" y="4"/>
      <point x="473" y="19" type="curve"/>
      <point x="604" y="-144" type="line"/>
      <point x="609" y="-152"/>
      <point x="623" y="-156"/>
      <point x="635" y="-156" type="curve" smooth="yes"/>
      <point x="678" y="-156" type="line"/>
      <point x="518" y="41" type="line"/>
      <point x="628" y="104"/>
      <point x="696" y="224"/>
      <point x="711" y="354" type="curve" smooth="yes"/>
    </contour>
    <contour>
      <point x="637" y="174"/>
      <point x="520" y="37"/>
      <point x="335" y="37" type="curve" smooth="yes"/>
      <point x="155" y="37"/>
      <point x="67" y="169"/>
      <point x="89" y="354" type="curve" smooth="yes"/>
      <point x="112" y="540"/>
      <point x="234" y="672"/>
      <point x="413" y="672" type="curve" smooth="yes"/>
      <point x="591" y="672"/>
      <point x="681" y="544"/>
      <point x="658" y="354" type="curve" smooth="yes"/>
    </contour>
    <contour>
      <point x="374" y="708" type="move" name="top"/>
    </contour>
    <contour>
      <point x="374" y="0" type="move" name="bottom"/>
    </contour>
  </outline>
</glyph>
<glyph name="T" format="1">
  <advance width="620"/>
  <unicode hex="0054"/>
  <note>
    T
  </note>
  <outline>
    <contour>
      <point x="46" y="707" type="line"/>
      <point x="28" y="561" type="line"/>
      <point x="52" y="561" type="line" smooth="yes"/>
      <point x="66" y="561"/>
      <point x="73" y="569"/>
      <point x="76" y="585" type="curve"/>
      <point x="90" y="664" type="line"/>
      <point x="297" y="664" type="line"/>
      <point x="220" y="40" type="line"/>
      <point x="156" y="38" type="line"/>
      <point x="143" y="37"/>
      <point x="135" y="31"/>
      <point x="134" y="20" type="curve"/>
      <point x="131" y="0" type="line"/>
      <point x="351" y="0" type="line"/>
      <point x="353" y="20" type="line" smooth="yes"/>
      <point x="354" y="31"/>
      <point x="348" y="37"/>
      <point x="335" y="38" type="curve"/>
      <point x="271" y="40" type="line"/>
      <point x="348" y="664" type="line"/>
      <point x="554" y="664" type="line"/>
      <point x="548" y="585" type="line"/>
      <point x="547" y="569"/>
      <point x="553" y="561"/>
      <point x="567" y="561" type="curve" smooth="yes"/>
      <point x="591" y="561" type="line"/>
      <point x="609" y="707" type="line"/>
    </contour>
    <contour>
      <point x="310" y="354" type="move" name="center"/>
    </contour>
    <contour>
      <point x="234" y="0" type="move" name="bottom"/>
    </contour>
    <contour>
      <point x="332" y="708" type="move" name="top"/>
    </contour>
  </outline>
</glyph>
<glyph name="asciicircum" format="1">
  <advance width="443"/>
  <unicode hex="005E"/>
  <note>
    asciicircum
  </note>
  <outline>
    <contour>
      <point x="246" y="708" type="line"/>
      <point x="38" y="400" type="line"/>
      <point x="74" y="400" type="line" smooth="yes"/>
      <point x="82" y="400"/>
      <point x="88" y="407"/>
      <point x="92" y="412" type="curve" smooth="yes"/>
      <point x="239" y="630" type="line"/>
      <point x="256" y="663" type="line"/>
      <point x="266" y="630" type="line"/>
      <point x="360" y="412" type="line"/>
      <point x="362" y="406"/>
      <point x="367" y="400"/>
      <point x="375" y="400" type="curve" smooth="yes"/>
      <point x="409" y="400" type="line"/>
      <point x="276" y="708" type="line"/>
    </contour>
  </outline>
</glyph>
<glyph name="underscore" format="1">
  <advance width="563"/>
  <unicode hex="005F"/>
  <note>
    underscore
  </note>
  <outline>
    <contour>
      <point x="477" y="-102" type="line"/>
      <point x="83" y="-102" type="line"/>
      <point x="78" y="-136" type="line"/>
      <point x="472" y="-136" type="line"/>
    </contour>
  </outline>
</glyph>
<glyph name="i" format="1">
  <advance width="221"/>
  <unicode hex="0069"/>
  <note>
    i
  </note>
  <outline>
    <contour>
      <point x="116" y="40" type="line"/>
      <point x="172" y="498" type="line"/>
      <point x="52" y="498" type="line"/>
      <point x="50" y="478" type="line" smooth="yes"/>
      <point x="49" y="467"/>
      <point x="54" y="461"/>
      <point x="67" y="460" type="curve"/>
      <point x="120" y="458" type="line"/>
      <point x="63" y="0" type="line"/>
      <point x="183" y="0" type="line"/>
      <point x="185" y="20" type="line" smooth="yes"/>
      <point x="186" y="31"/>
      <point x="181" y="37"/>
      <point x="168" y="38" type="curve"/>
    </contour>
    <component base="dotaccentcomb.case" xOffset="35"/>
    <contour>
      <point x="125" y="0" type="move" name="bottom"/>
    </contour>
  </outline>
</glyph>
<glyph name="bar" format="1">
  <advance width="205"/>
  <unicode hex="007C"/>
  <note>
    bar
  </note>
  <outline>
    <contour>
      <point x="84" y="758" type="line"/>
      <point x="84" y="-176" type="line"/>
      <point x="121" y="-176" type="line"/>
      <point x="121" y="758" type="line"/>
    </contour>
  </outline>
</glyph>
<glyph name="dieresis" format="1">
  <advance width="377"/>
  <unicode hex="00A8"/>
  <note>
    dieresis
  </note>
  <outline>
    <contour>
      <point x="362" y="635"/>
      <point x="383" y="653"/>
      <point x="385" y="676" type="curve" smooth="yes"/>
      <point x="387" y="698"/>
      <point x="372" y="716"/>
      <point x="350" y="716" type="curve" smooth="yes"/>
      <point x="327" y="716"/>
      <point x="306" y="698"/>
      <point x="304" y="676" type="curve" smooth="yes"/>
      <point x="302" y="653"/>
      <point x="317" y="635"/>
      <point x="340" y="635" type="curve" smooth="yes"/>
    </contour>
    <contour>
      <point x="154" y="635"/>
      <point x="175" y="653"/>
      <point x="177" y="676" type="curve" smooth="yes"/>
      <point x="179" y="698"/>
      <point x="164" y="716"/>
      <point x="142" y="716" type="curve" smooth="yes"/>
      <point x="119" y="716"/>
      <point x="98" y="698"/>
      <point x="96" y="676" type="curve" smooth="yes"/>
      <point x="94" y="653"/>
      <point x="109" y="635"/>
      <point x="132" y="635" type="curve" smooth="yes"/>
    </contour>
    <contour>
      <point x="194" y="716" type="move" name="top"/>
    </contour>
    <contour>
      <point x="194" y="498" type="move" name="_top"/>
    </contour>
  </outline>
</glyph>
<glyph name="degree" format="1">
  <advance width="398"/>
  <unicode hex="00B0"/>
  <note>
    degree
  </note>
  <outline>
    <contour>
      <point x="43" y="490"/>
      <point x="101" y="418"/>
      <point x="186" y="418" type="curve" smooth="yes"/>
      <point x="266" y="418"/>
      <point x="343" y="481"/>
      <point x="355" y="567" type="curve" smooth="yes"/>
      <point x="367" y="649"/>
      <point x="306" y="716"/>
      <point x="223" y="716" type="curve" smooth="yes"/>
      <point x="143" y="716"/>
      <point x="66" y="654"/>
      <point x="54" y="567" type="curve" smooth="yes"/>
    </contour>
    <contour>
      <point x="98" y="628"/>
      <point x="149" y="682"/>
      <point x="219" y="682" type="curve" smooth="yes"/>
      <point x="285" y="682"/>
      <point x="327" y="632"/>
      <point x="319" y="567" type="curve" smooth="yes"/>
      <point x="310" y="506"/>
      <point x="258" y="452"/>
      <point x="191" y="452" type="curve" smooth="yes"/>
      <point x="130" y="452"/>
      <point x="82" y="500"/>
      <point x="90" y="567" type="curve" smooth="yes"/>
    </contour>
  </outline>
</glyph>
<glyph name="paragraph" format="1">
  <advance width="668"/>
  <unicode hex="00B6"/>
  <note>
    paragraph
  </note>
  <outline>
    <contour>
      <point x="646" y="708" type="line"/>
      <point x="284" y="708" type="line" smooth="yes"/>
      <point x="160" y="708"/>
      <point x="54" y="645"/>
      <point x="41" y="532" type="curve" smooth="yes"/>
      <point x="29" y="419"/>
      <point x="114" y="350"/>
      <point x="240" y="350" type="curve"/>
      <point x="185" y="-95" type="line"/>
      <point x="228" y="-95" type="line"/>
      <point x="322" y="666" type="line"/>
      <point x="486" y="666" type="line"/>
      <point x="392" y="-95" type="line"/>
      <point x="435" y="-95" type="line"/>
      <point x="528" y="666" type="line"/>
      <point x="641" y="666" type="line"/>
    </contour>
  </outline>
</glyph>
<glyph name="cedilla" format="1">
  <advance width="285"/>
  <unicode hex="00B8"/>
  <note>
    cedilla
  </note>
  <outline>
    <contour>
      <point x="59" y="-64" type="line"/>
      <point x="99" y="-71"/>
      <point x="148" y="-74"/>
      <point x="143" y="-113" type="curve" smooth="yes"/>
      <point x="139" y="-142"/>
      <point x="114" y="-154"/>
      <point x="83" y="-154" type="curve" smooth="yes"/>
      <point x="67" y="-154"/>
      <point x="46" y="-148"/>
      <point x="33" y="-139" type="curve" smooth="yes"/>
      <point x="30" y="-137"/>
      <point x="23" y="-132"/>
      <point x="18" y="-142" type="curve" smooth="yes"/>
      <point x="11" y="-156" type="line"/>
      <point x="32" y="-171"/>
      <point x="54" y="-177"/>
      <point x="81" y="-177" type="curve" smooth="yes"/>
      <point x="132" y="-177"/>
      <point x="177" y="-155"/>
      <point x="181" y="-113" type="curve" smooth="yes"/>
      <point x="185" y="-72"/>
      <point x="155" y="-55"/>
      <point x="98" y="-45" type="curve"/>
      <point x="115" y="-8" type="line"/>
      <point x="126" y="15" type="line"/>
      <point x="94" y="15" type="line"/>
      <point x="84" y="-7" type="line"/>
    </contour>
  </outline>
</glyph>
<glyph name="onehalf" format="1">
  <advance width="649"/>
  <unicode hex="00BD"/>
  <note>
    onehalf
  </note>
  <outline>
    <contour>
      <point x="574" y="708" type="line"/>
      <point x="553" y="708" type="line" smooth="yes"/>
      <point x="546" y="708"/>
      <point x="542" y="706"/>
      <point x="537" y="703" type="curve" smooth="yes"/>
      <point x="532" y="700"/>
      <point x="528" y="696"/>
      <point x="524" y="690" type="curve" smooth="yes"/>
      <point x="39" y="0" type="line"/>
      <point x="59" y="0" type="line" smooth="yes"/>
      <point x="65" y="0"/>
      <point x="70" y="1"/>
      <point x="75" y="3" type="curve" smooth="yes"/>
      <point x="80" y="5"/>
      <point x="84" y="10"/>
      <point x="88" y="16" type="curve" smooth="yes"/>
    </contour>
    <component base="onesuperior" xOffset="-10" yOffset="-97"/>
    <component base="twosuperior" xOffset="307" yOffset="-449"/>
  </outline>
</glyph>
<glyph name="Oslash" format="1">
  <advance width="763"/>
  <unicode hex="00D8"/>
  <note>
    Oslash
  </note>
  <outline>
    <contour>
      <point x="734" y="460"/>
      <point x="716" y="557"/>
      <point x="649" y="629" type="curve"/>
      <point x="745" y="740" type="line"/>
      <point x="717" y="740" type="line" smooth="yes"/>
      <point x="705" y="740"/>
      <point x="700" y="735"/>
      <point x="690" y="725" type="curve"/>
      <point x="626" y="650" type="line"/>
      <point x="572" y="695"/>
      <point x="502" y="716"/>
      <point x="428" y="716" type="curve" smooth="yes"/>
      <point x="223" y="716"/>
      <point x="73" y="563"/>
      <point x="46" y="354" type="curve" smooth="yes"/>
      <point x="34" y="248"/>
      <point x="52" y="145"/>
      <point x="125" y="72" type="curve"/>
      <point x="18" y="-52" type="line"/>
      <point x="40" y="-52" type="line" smooth="yes"/>
      <point x="54" y="-52"/>
      <point x="63" y="-47"/>
      <point x="72" y="-36" type="curve" smooth="yes"/>
      <point x="149" y="52" type="line"/>
      <point x="202" y="12"/>
      <point x="270" y="-8"/>
      <point x="339" y="-8" type="curve" smooth="yes"/>
      <point x="544" y="-8"/>
      <point x="695" y="141"/>
      <point x="721" y="354" type="curve" smooth="yes"/>
    </contour>
    <contour>
      <point x="122" y="539"/>
      <point x="243" y="672"/>
      <point x="422" y="672" type="curve" smooth="yes"/>
      <point x="484" y="672"/>
      <point x="550" y="652"/>
      <point x="593" y="613" type="curve"/>
      <point x="159" y="110" type="line"/>
      <point x="104" y="170"/>
      <point x="86" y="259"/>
      <point x="99" y="354" type="curve" smooth="yes"/>
    </contour>
    <contour>
      <point x="647" y="174"/>
      <point x="528" y="37"/>
      <point x="344" y="37" type="curve" smooth="yes"/>
      <point x="285" y="37"/>
      <point x="229" y="50"/>
      <point x="181" y="89" type="curve"/>
      <point x="615" y="590" type="line"/>
      <point x="666" y="530"/>
      <point x="678" y="442"/>
      <point x="668" y="354" type="curve" smooth="yes"/>
    </contour>
  </outline>
</glyph>
<glyph name="Thorn" format="1">
  <advance width="538"/>
  <unicode hex="00DE"/>
  <note>
    Thorn
  </note>
  <outline>
    <contour>
      <point x="99" y="143" type="line"/>
      <point x="230" y="143" type="line" smooth="yes"/>
      <point x="373" y="143"/>
      <point x="490" y="222"/>
      <point x="507" y="356" type="curve" smooth="yes"/>
      <point x="524" y="500"/>
      <point x="435" y="566"/>
      <point x="282" y="566" type="curve" smooth="yes"/>
      <point x="150" y="566" type="line"/>
      <point x="168" y="708" type="line"/>
      <point x="117" y="708" type="line"/>
      <point x="30" y="0" type="line"/>
      <point x="81" y="0" type="line"/>
    </contour>
    <contour>
      <point x="104" y="184" type="line"/>
      <point x="145" y="524" type="line"/>
      <point x="277" y="524" type="line" smooth="yes"/>
      <point x="399" y="524"/>
      <point x="471" y="473"/>
      <point x="456" y="356" type="curve" smooth="yes"/>
      <point x="444" y="251"/>
      <point x="353" y="184"/>
      <point x="235" y="184" type="curve" smooth="yes"/>
    </contour>
  </outline>
</glyph>
<glyph name="edieresis" format="1">
  <advance width="437"/>
  <unicode hex="00EB"/>
  <note>
    edieresis
  </note>
  <outline>
    <contour>
      <point x="409" y="412"/>
      <point x="406" y="424"/>
      <point x="401" y="436" type="curve" smooth="yes"/>
      <point x="396" y="448"/>
      <point x="390" y="459"/>
      <point x="379" y="469" type="curve"/>
      <point x="369" y="479"/>
      <point x="355" y="487"/>
      <point x="338" y="494" type="curve" smooth="yes"/>
      <point x="321" y="501"/>
      <point x="300" y="504"/>
      <point x="276" y="504" type="curve" smooth="yes"/>
      <point x="250" y="504"/>
      <point x="225" y="500"/>
      <point x="202" y="491" type="curve" smooth="yes"/>
      <point x="179" y="482"/>
      <point x="159" y="471"/>
      <point x="140" y="456" type="curve" smooth="yes"/>
      <point x="121" y="441"/>
      <point x="105" y="423"/>
      <point x="91" y="403" type="curve" smooth="yes"/>
      <point x="77" y="383"/>
      <point x="64" y="360"/>
      <point x="54" y="337" type="curve" smooth="yes"/>
      <point x="44" y="314"/>
      <point x="37" y="289"/>
      <point x="32" y="264" type="curve" smooth="yes"/>
      <point x="27" y="239"/>
      <point x="24" y="214"/>
      <point x="24" y="189" type="curve" smooth="yes"/>
      <point x="24" y="159"/>
      <point x="28" y="132"/>
      <point x="36" y="108" type="curve" smooth="yes"/>
      <point x="44" y="84"/>
      <point x="54" y="63"/>
      <point x="69" y="46" type="curve" smooth="yes"/>
      <point x="84" y="29"/>
      <point x="102" y="16"/>
      <point x="124" y="7" type="curve" smooth="yes"/>
      <point x="146" y="-2"/>
      <point x="170" y="-6"/>
      <point x="198" y="-6" type="curve" smooth="yes"/>
      <point x="217" y="-6"/>
      <point x="235" y="-5"/>
      <point x="252" y="-1" type="curve" smooth="yes"/>
      <point x="269" y="3"/>
      <point x="285" y="9"/>
      <point x="301" y="17" type="curve" smooth="yes"/>
      <point x="317" y="25"/>
      <point x="333" y="36"/>
      <point x="348" y="48" type="curve" smooth="yes"/>
      <point x="363" y="60"/>
      <point x="380" y="75"/>
      <point x="396" y="92" type="curve"/>
      <point x="385" y="105" type="line"/>
      <point x="382" y="108"/>
      <point x="378" y="110"/>
      <point x="374" y="110" type="curve" smooth="yes"/>
      <point x="370" y="110"/>
      <point x="366" y="109"/>
      <point x="361" y="105" type="curve" smooth="yes"/>
      <point x="356" y="101"/>
      <point x="351" y="96"/>
      <point x="344" y="90" type="curve" smooth="yes"/>
      <point x="337" y="84"/>
      <point x="329" y="78"/>
      <point x="321" y="71" type="curve" smooth="yes"/>
      <point x="313" y="64"/>
      <point x="303" y="58"/>
      <point x="292" y="52" type="curve" smooth="yes"/>
      <point x="281" y="46"/>
      <point x="268" y="41"/>
      <point x="254" y="37" type="curve" smooth="yes"/>
      <point x="240" y="33"/>
      <point x="224" y="31"/>
      <point x="206" y="31" type="curve" smooth="yes"/>
      <point x="161" y="31"/>
      <point x="126" y="45"/>
      <point x="104" y="73" type="curve" smooth="yes"/>
      <point x="82" y="101"/>
      <point x="71" y="140"/>
      <point x="71" y="190" type="curve" smooth="yes"/>
      <point x="71" y="210" type="line" smooth="yes"/>
      <point x="71" y="217"/>
      <point x="72" y="224"/>
      <point x="73" y="231" type="curve"/>
      <point x="120" y="236"/>
      <point x="160" y="241"/>
      <point x="195" y="248" type="curve" smooth="yes"/>
      <point x="230" y="254"/>
      <point x="259" y="262"/>
      <point x="284" y="270" type="curve" smooth="yes"/>
      <point x="309" y="278"/>
      <point x="330" y="287"/>
      <point x="346" y="297" type="curve" smooth="yes"/>
      <point x="362" y="307"/>
      <point x="375" y="317"/>
      <point x="384" y="328" type="curve" smooth="yes"/>
      <point x="393" y="339"/>
      <point x="399" y="351"/>
      <point x="403" y="363" type="curve" smooth="yes"/>
      <point x="407" y="375"/>
      <point x="409" y="388"/>
      <point x="409" y="402" type="curve" smooth="yes"/>
    </contour>
    <contour>
      <point x="291" y="469"/>
      <point x="305" y="468"/>
      <point x="317" y="463" type="curve"/>
      <point x="329" y="459"/>
      <point x="339" y="453"/>
      <point x="346" y="446" type="curve" smooth="yes"/>
      <point x="353" y="439"/>
      <point x="359" y="432"/>
      <point x="362" y="424" type="curve" smooth="yes"/>
      <point x="365" y="416"/>
      <point x="367" y="408"/>
      <point x="367" y="401" type="curve" smooth="yes"/>
      <point x="367" y="391"/>
      <point x="365" y="382"/>
      <point x="363" y="373" type="curve" smooth="yes"/>
      <point x="361" y="364"/>
      <point x="355" y="355"/>
      <point x="348" y="347" type="curve"/>
      <point x="341" y="338"/>
      <point x="330" y="330"/>
      <point x="317" y="322" type="curve" smooth="yes"/>
      <point x="304" y="314"/>
      <point x="287" y="307"/>
      <point x="266" y="300" type="curve" smooth="yes"/>
      <point x="245" y="293"/>
      <point x="219" y="286"/>
      <point x="188" y="280" type="curve" smooth="yes"/>
      <point x="157" y="274"/>
      <point x="120" y="269"/>
      <point x="78" y="264" type="curve"/>
      <point x="83" y="291"/>
      <point x="92" y="317"/>
      <point x="103" y="342" type="curve" smooth="yes"/>
      <point x="114" y="367"/>
      <point x="127" y="388"/>
      <point x="144" y="407" type="curve" smooth="yes"/>
      <point x="161" y="426"/>
      <point x="180" y="441"/>
      <point x="201" y="452" type="curve" smooth="yes"/>
      <point x="223" y="463"/>
      <point x="247" y="469"/>
      <point x="274" y="469" type="curve" smooth="yes"/>
    </contour>
    <contour>
      <point x="229" y="648"/>
      <point x="228" y="653"/>
      <point x="226" y="658" type="curve" smooth="yes"/>
      <point x="224" y="663"/>
      <point x="222" y="667"/>
      <point x="219" y="671" type="curve" smooth="yes"/>
      <point x="216" y="675"/>
      <point x="212" y="678"/>
      <point x="207" y="680" type="curve" smooth="yes"/>
      <point x="202" y="682"/>
      <point x="196" y="684"/>
      <point x="191" y="684" type="curve" smooth="yes"/>
      <point x="186" y="684"/>
      <point x="181" y="682"/>
      <point x="176" y="680" type="curve" smooth="yes"/>
      <point x="171" y="678"/>
      <point x="165" y="675"/>
      <point x="161" y="671" type="curve" smooth="yes"/>
      <point x="157" y="667"/>
      <point x="154" y="663"/>
      <point x="151" y="658" type="curve" smooth="yes"/>
      <point x="148" y="653"/>
      <point x="147" y="648"/>
      <point x="146" y="642" type="curve" smooth="yes"/>
      <point x="145" y="637"/>
      <point x="145" y="632"/>
      <point x="147" y="627" type="curve" smooth="yes"/>
      <point x="149" y="622"/>
      <point x="151" y="618"/>
      <point x="154" y="614" type="curve" smooth="yes"/>
      <point x="157" y="610"/>
      <point x="161" y="607"/>
      <point x="166" y="605" type="curve" smooth="yes"/>
      <point x="171" y="603"/>
      <point x="176" y="602"/>
      <point x="181" y="602" type="curve" smooth="yes"/>
      <point x="186" y="602"/>
      <point x="192" y="603"/>
      <point x="197" y="605" type="curve" smooth="yes"/>
      <point x="202" y="607"/>
      <point x="208" y="610"/>
      <point x="212" y="614" type="curve" smooth="yes"/>
      <point x="216" y="618"/>
      <point x="219" y="622"/>
      <point x="222" y="627" type="curve" smooth="yes"/>
      <point x="225" y="632"/>
      <point x="227" y="637"/>
      <point x="228" y="642" type="curve" smooth="yes"/>
    </contour>
    <contour>
      <point x="400" y="648"/>
      <point x="400" y="653"/>
      <point x="398" y="658" type="curve" smooth="yes"/>
      <point x="396" y="663"/>
      <point x="393" y="667"/>
      <point x="390" y="671" type="curve" smooth="yes"/>
      <point x="387" y="675"/>
      <point x="383" y="678"/>
      <point x="378" y="680" type="curve" smooth="yes"/>
      <point x="373" y="682"/>
      <point x="368" y="684"/>
      <point x="363" y="684" type="curve" smooth="yes"/>
      <point x="357" y="684"/>
      <point x="352" y="682"/>
      <point x="347" y="680" type="curve" smooth="yes"/>
      <point x="342" y="678"/>
      <point x="336" y="675"/>
      <point x="332" y="671" type="curve" smooth="yes"/>
      <point x="328" y="667"/>
      <point x="325" y="663"/>
      <point x="322" y="658" type="curve" smooth="yes"/>
      <point x="319" y="653"/>
      <point x="318" y="648"/>
      <point x="317" y="642" type="curve" smooth="yes"/>
      <point x="316" y="637"/>
      <point x="316" y="632"/>
      <point x="318" y="627" type="curve" smooth="yes"/>
      <point x="320" y="622"/>
      <point x="322" y="618"/>
      <point x="325" y="614" type="curve" smooth="yes"/>
      <point x="328" y="610"/>
      <point x="332" y="607"/>
      <point x="337" y="605" type="curve" smooth="yes"/>
      <point x="342" y="603"/>
      <point x="347" y="602"/>
      <point x="353" y="602" type="curve" smooth="yes"/>
      <point x="358" y="602"/>
      <point x="364" y="603"/>
      <point x="369" y="605" type="curve" smooth="yes"/>
      <point x="374" y="607"/>
      <point x="379" y="610"/>
      <point x="383" y="614" type="curve" smooth="yes"/>
      <point x="387" y="618"/>
      <point x="391" y="622"/>
      <point x="394" y="627" type="curve" smooth="yes"/>
      <point x="397" y="632"/>
      <point x="398" y="637"/>
      <point x="399" y="642" type="curve" smooth="yes"/>
    </contour>
  </outline>
</glyph>
<glyph name="ocircumflex" format="1">
  <advance width="519"/>
  <unicode hex="00F4"/>
  <note>
    ocircumflex
  </note>
  <outline>
    <contour>
      <point x="250" y="506"/>
      <point x="218" y="499"/>
      <point x="188" y="487" type="curve" smooth="yes"/>
      <point x="158" y="475"/>
      <point x="132" y="458"/>
      <point x="110" y="436" type="curve" smooth="yes"/>
      <point x="88" y="414"/>
      <point x="70" y="387"/>
      <point x="56" y="355" type="curve" smooth="yes"/>
      <point x="42" y="323"/>
      <point x="33" y="288"/>
      <point x="28" y="249" type="curve" smooth="yes"/>
      <point x="23" y="210"/>
      <point x="24" y="175"/>
      <point x="30" y="144" type="curve" smooth="yes"/>
      <point x="36" y="113"/>
      <point x="48" y="85"/>
      <point x="65" y="63" type="curve" smooth="yes"/>
      <point x="82" y="41"/>
      <point x="103" y="24"/>
      <point x="130" y="12" type="curve" smooth="yes"/>
      <point x="157" y="0"/>
      <point x="187" y="-6"/>
      <point x="223" y="-6" type="curve" smooth="yes"/>
      <point x="259" y="-6"/>
      <point x="291" y="0"/>
      <point x="321" y="12" type="curve" smooth="yes"/>
      <point x="351" y="24"/>
      <point x="377" y="41"/>
      <point x="399" y="63" type="curve" smooth="yes"/>
      <point x="421" y="85"/>
      <point x="439" y="113"/>
      <point x="453" y="144" type="curve" smooth="yes"/>
      <point x="467" y="175"/>
      <point x="476" y="210"/>
      <point x="481" y="249" type="curve" smooth="yes"/>
      <point x="486" y="288"/>
      <point x="485" y="323"/>
      <point x="479" y="355" type="curve" smooth="yes"/>
      <point x="473" y="387"/>
      <point x="461" y="414"/>
      <point x="444" y="436" type="curve" smooth="yes"/>
      <point x="427" y="458"/>
      <point x="407" y="475"/>
      <point x="380" y="487" type="curve" smooth="yes"/>
      <point x="353" y="499"/>
      <point x="322" y="506"/>
      <point x="286" y="506" type="curve" smooth="yes"/>
    </contour>
    <contour>
      <point x="198" y="31"/>
      <point x="173" y="36"/>
      <point x="152" y="46" type="curve" smooth="yes"/>
      <point x="131" y="56"/>
      <point x="114" y="71"/>
      <point x="102" y="90" type="curve" smooth="yes"/>
      <point x="90" y="109"/>
      <point x="81" y="132"/>
      <point x="77" y="159" type="curve" smooth="yes"/>
      <point x="73" y="186"/>
      <point x="73" y="216"/>
      <point x="77" y="249" type="curve" smooth="yes"/>
      <point x="81" y="282"/>
      <point x="88" y="312"/>
      <point x="99" y="339" type="curve" smooth="yes"/>
      <point x="110" y="366"/>
      <point x="124" y="389"/>
      <point x="141" y="408" type="curve" smooth="yes"/>
      <point x="158" y="427"/>
      <point x="179" y="443"/>
      <point x="202" y="453" type="curve" smooth="yes"/>
      <point x="225" y="463"/>
      <point x="251" y="468"/>
      <point x="281" y="468" type="curve" smooth="yes"/>
      <point x="311" y="468"/>
      <point x="336" y="463"/>
      <point x="357" y="453" type="curve" smooth="yes"/>
      <point x="378" y="443"/>
      <point x="395" y="427"/>
      <point x="407" y="408" type="curve" smooth="yes"/>
      <point x="419" y="389"/>
      <point x="428" y="366"/>
      <point x="432" y="339" type="curve" smooth="yes"/>
      <point x="436" y="312"/>
      <point x="436" y="282"/>
      <point x="432" y="249" type="curve" smooth="yes"/>
      <point x="428" y="216"/>
      <point x="421" y="186"/>
      <point x="410" y="159" type="curve" smooth="yes"/>
      <point x="399" y="132"/>
      <point x="385" y="109"/>
      <point x="368" y="90" type="curve" smooth="yes"/>
      <point x="351" y="71"/>
      <point x="330" y="56"/>
      <point x="307" y="46" type="curve" smooth="yes"/>
      <point x="284" y="36"/>
      <point x="258" y="31"/>
      <point x="228" y="31" type="curve" smooth="yes"/>
    </contour>
    <contour>
      <point x="426" y="585" type="line"/>
      <point x="333" y="708" type="line"/>
      <point x="290" y="708" type="line"/>
      <point x="166" y="585" type="line"/>
      <point x="200" y="585" type="line" smooth="yes"/>
      <point x="203" y="585"/>
      <point x="206" y="585"/>
      <point x="208" y="586" type="curve" smooth="yes"/>
      <point x="210" y="587"/>
      <point x="212" y="588"/>
      <point x="214" y="590" type="curve"/>
      <point x="303" y="672" type="line"/>
      <point x="305" y="674" type="line" smooth="yes"/>
      <point x="306" y="675"/>
      <point x="307" y="677"/>
      <point x="308" y="678" type="curve"/>
      <point x="309" y="676"/>
      <point x="311" y="673"/>
      <point x="313" y="672" type="curve"/>
      <point x="381" y="590" type="line"/>
      <point x="384" y="586"/>
      <point x="389" y="584"/>
      <point x="394" y="584" type="curve" smooth="yes"/>
    </contour>
  </outline>
</glyph>
<glyph name="oslash" format="1">
  <advance width="559"/>
  <unicode hex="00F8"/>
  <note>
    oslash
  </note>
  <outline>
    <contour>
      <point x="544" y="531" type="line"/>
      <point x="519" y="531" type="line" smooth="yes"/>
      <point x="505" y="531"/>
      <point x="502" y="527"/>
      <point x="493" y="516" type="curve"/>
      <point x="442" y="458" type="line"/>
      <point x="408" y="490"/>
      <point x="356" y="506"/>
      <point x="305" y="506" type="curve" smooth="yes"/>
      <point x="162" y="506"/>
      <point x="66" y="405"/>
      <point x="46" y="249" type="curve" smooth="yes"/>
      <point x="38" y="179"/>
      <point x="46" y="103"/>
      <point x="91" y="53" type="curve"/>
      <point x="12" y="-38" type="line"/>
      <point x="32" y="-38" type="line" smooth="yes"/>
      <point x="41" y="-38"/>
      <point x="55" y="-34"/>
      <point x="65" y="-22" type="curve" smooth="yes"/>
      <point x="112" y="33" type="line"/>
      <point x="145" y="7"/>
      <point x="188" y="-6"/>
      <point x="242" y="-6" type="curve" smooth="yes"/>
      <point x="389" y="-6"/>
      <point x="480" y="99"/>
      <point x="500" y="249" type="curve" smooth="yes"/>
      <point x="508" y="312"/>
      <point x="501" y="385"/>
      <point x="462" y="436" type="curve"/>
    </contour>
    <contour>
      <point x="108" y="378"/>
      <point x="179" y="469"/>
      <point x="300" y="469" type="curve" smooth="yes"/>
      <point x="341" y="469"/>
      <point x="384" y="458"/>
      <point x="414" y="426" type="curve"/>
      <point x="120" y="87" type="line"/>
      <point x="89" y="129"/>
      <point x="86" y="188"/>
      <point x="93" y="249" type="curve" smooth="yes"/>
    </contour>
    <contour>
      <point x="201" y="30"/>
      <point x="166" y="42"/>
      <point x="140" y="65" type="curve"/>
      <point x="432" y="402" type="line"/>
      <point x="454" y="364"/>
      <point x="461" y="313"/>
      <point x="453" y="249" type="curve" smooth="yes"/>
      <point x="437" y="122"/>
      <point x="368" y="30"/>
      <point x="246" y="30" type="curve" smooth="yes"/>
    </contour>
  </outline>
</glyph>
<glyph name="udieresis" format="1">
  <advance width="560"/>
  <unicode hex="00FC"/>
  <note>
    udieresis
  </note>
  <outline>
    <contour>
      <point x="487" y="38" type="line"/>
      <point x="479" y="38" type="line" smooth="yes"/>
      <point x="476" y="38"/>
      <point x="471" y="39"/>
      <point x="464" y="39" type="curve" smooth="yes"/>
      <point x="457" y="39"/>
      <point x="449" y="40"/>
      <point x="440" y="40" type="curve"/>
      <point x="496" y="498" type="line"/>
      <point x="448" y="497" type="line"/>
      <point x="376" y="497" type="line"/>
      <point x="374" y="478" type="line" smooth="yes"/>
      <point x="373" y="467"/>
      <point x="378" y="461"/>
      <point x="391" y="460" type="curve"/>
      <point x="397" y="460" type="line" smooth="yes"/>
      <point x="399" y="460"/>
      <point x="401" y="459"/>
      <point x="404" y="459" type="curve" smooth="yes"/>
      <point x="419" y="459" type="line" smooth="yes"/>
      <point x="426" y="459"/>
      <point x="435" y="458"/>
      <point x="444" y="458" type="curve"/>
      <point x="402" y="124" type="line"/>
      <point x="376" y="95"/>
      <point x="348" y="72"/>
      <point x="318" y="55" type="curve" smooth="yes"/>
      <point x="288" y="39"/>
      <point x="256" y="30"/>
      <point x="224" y="30" type="curve" smooth="yes"/>
      <point x="180" y="30"/>
      <point x="149" y="44"/>
      <point x="131" y="70" type="curve" smooth="yes"/>
      <point x="113" y="97"/>
      <point x="107" y="133"/>
      <point x="113" y="180" type="curve" smooth="yes"/>
      <point x="152" y="498" type="line"/>
      <point x="104" y="497" type="line"/>
      <point x="32" y="497" type="line"/>
      <point x="30" y="478" type="line" smooth="yes"/>
      <point x="29" y="467"/>
      <point x="34" y="461"/>
      <point x="47" y="460" type="curve"/>
      <point x="53" y="460" type="line" smooth="yes"/>
      <point x="55" y="460"/>
      <point x="57" y="459"/>
      <point x="60" y="459" type="curve" smooth="yes"/>
      <point x="75" y="459" type="line" smooth="yes"/>
      <point x="82" y="459"/>
      <point x="91" y="458"/>
      <point x="100" y="458" type="curve"/>
      <point x="65" y="180" type="line" smooth="yes"/>
      <point x="61" y="151"/>
      <point x="62" y="125"/>
      <point x="66" y="102" type="curve" smooth="yes"/>
      <point x="70" y="79"/>
      <point x="78" y="59"/>
      <point x="90" y="43" type="curve" smooth="yes"/>
      <point x="102" y="27"/>
      <point x="117" y="14"/>
      <point x="137" y="5" type="curve" smooth="yes"/>
      <point x="157" y="-4"/>
      <point x="180" y="-8"/>
      <point x="208" y="-8" type="curve" smooth="yes"/>
      <point x="245" y="-8"/>
      <point x="280" y="1"/>
      <point x="312" y="18" type="curve" smooth="yes"/>
      <point x="344" y="35"/>
      <point x="373" y="58"/>
      <point x="400" y="87" type="curve"/>
      <point x="396" y="13" type="line"/>
      <point x="395" y="4"/>
      <point x="400" y="0"/>
      <point x="409" y="0" type="curve" smooth="yes"/>
      <point x="435" y="0" type="line"/>
      <point x="507" y="0" type="line"/>
      <point x="509" y="20" type="line" smooth="yes"/>
      <point x="510" y="31"/>
      <point x="505" y="37"/>
      <point x="492" y="38" type="curve"/>
    </contour>
    <contour>
      <point x="278" y="648"/>
      <point x="277" y="653"/>
      <point x="275" y="658" type="curve" smooth="yes"/>
      <point x="273" y="663"/>
      <point x="271" y="667"/>
      <point x="268" y="671" type="curve" smooth="yes"/>
      <point x="265" y="675"/>
      <point x="261" y="678"/>
      <point x="256" y="680" type="curve" smooth="yes"/>
      <point x="251" y="682"/>
      <point x="245" y="684"/>
      <point x="240" y="684" type="curve" smooth="yes"/>
      <point x="235" y="684"/>
      <point x="230" y="682"/>
      <point x="225" y="680" type="curve" smooth="yes"/>
      <point x="220" y="678"/>
      <point x="214" y="675"/>
      <point x="210" y="671" type="curve" smooth="yes"/>
      <point x="206" y="667"/>
      <point x="203" y="663"/>
      <point x="200" y="658" type="curve" smooth="yes"/>
      <point x="197" y="653"/>
      <point x="196" y="648"/>
      <point x="195" y="642" type="curve" smooth="yes"/>
      <point x="194" y="637"/>
      <point x="194" y="632"/>
      <point x="196" y="627" type="curve" smooth="yes"/>
      <point x="198" y="622"/>
      <point x="200" y="618"/>
      <point x="203" y="614" type="curve" smooth="yes"/>
      <point x="206" y="610"/>
      <point x="210" y="607"/>
      <point x="215" y="605" type="curve" smooth="yes"/>
      <point x="220" y="603"/>
      <point x="225" y="602"/>
      <point x="230" y="602" type="curve" smooth="yes"/>
      <point x="235" y="602"/>
      <point x="241" y="603"/>
      <point x="246" y="605" type="curve" smooth="yes"/>
      <point x="251" y="607"/>
      <point x="257" y="610"/>
      <point x="261" y="614" type="curve" smooth="yes"/>
      <point x="265" y="618"/>
      <point x="268" y="622"/>
      <point x="271" y="627" type="curve" smooth="yes"/>
      <point x="274" y="632"/>
      <point x="276" y="637"/>
      <point x="277" y="642" type="curve" smooth="yes"/>
    </contour>
    <contour>
      <point x="449" y="648"/>
      <point x="449" y="653"/>
      <point x="447" y="658" type="curve" smooth="yes"/>
      <point x="445" y="663"/>
      <point x="442" y="667"/>
      <point x="439" y="671" type="curve" smooth="yes"/>
      <point x="436" y="675"/>
      <point x="432" y="678"/>
      <point x="427" y="680" type="curve" smooth="yes"/>
      <point x="422" y="682"/>
      <point x="417" y="684"/>
      <point x="412" y="684" type="curve" smooth="yes"/>
      <point x="406" y="684"/>
      <point x="401" y="682"/>
      <point x="396" y="680" type="curve" smooth="yes"/>
      <point x="391" y="678"/>
      <point x="385" y="675"/>
      <point x="381" y="671" type="curve" smooth="yes"/>
      <point x="377" y="667"/>
      <point x="374" y="663"/>
      <point x="371" y="658" type="curve" smooth="yes"/>
      <point x="368" y="653"/>
      <point x="367" y="648"/>
      <point x="366" y="642" type="curve" smooth="yes"/>
      <point x="365" y="637"/>
      <point x="365" y="632"/>
      <point x="367" y="627" type="curve" smooth="yes"/>
      <point x="369" y="622"/>
      <point x="371" y="618"/>
      <point x="374" y="614" type="curve" smooth="yes"/>
      <point x="377" y="610"/>
      <point x="381" y="607"/>
      <point x="386" y="605" type="curve" smooth="yes"/>
      <point x="391" y="603"/>
      <point x="396" y="602"/>
      <point x="402" y="602" type="curve" smooth="yes"/>
      <point x="407" y="602"/>
      <point x="413" y="603"/>
      <point x="418" y="605" type="curve" smooth="yes"/>
      <point x="423" y="607"/>
      <point x="428" y="610"/>
      <point x="432" y="614" type="curve" smooth="yes"/>
      <point x="436" y="618"/>
      <point x="440" y="622"/>
      <point x="443" y="627" type="curve" smooth="yes"/>
      <point x="446" y="632"/>
      <point x="447" y="637"/>
      <point x="448" y="642" type="curve" smooth="yes"/>
    </contour>
  </outline>
</glyph>
<glyph name="lslash" format="1">
  <advance width="312"/>
  <unicode hex="0142"/>
  <note>
    lslash
  </note>
  <outline>
    <contour>
      <point x="196" y="431" type="line"/>
      <point x="233" y="728" type="line"/>
      <point x="113" y="728" type="line"/>
      <point x="110" y="708" type="line"/>
      <point x="109" y="697"/>
      <point x="115" y="691"/>
      <point x="128" y="690" type="curve"/>
      <point x="180" y="688" type="line"/>
      <point x="146" y="413" type="line"/>
      <point x="53" y="371" type="line"/>
      <point x="47" y="368"/>
      <point x="43" y="363"/>
      <point x="42" y="356" type="curve" smooth="yes"/>
      <point x="39" y="330" type="line"/>
      <point x="142" y="375" type="line"/>
      <point x="101" y="40" type="line"/>
      <point x="48" y="38" type="line"/>
      <point x="35" y="37"/>
      <point x="27" y="31"/>
      <point x="26" y="20" type="curve" smooth="yes"/>
      <point x="24" y="0" type="line"/>
      <point x="215" y="0" type="line"/>
      <point x="218" y="20" type="line"/>
      <point x="219" y="31"/>
      <point x="213" y="37"/>
      <point x="200" y="38" type="curve"/>
      <point x="148" y="40" type="line"/>
      <point x="191" y="393" type="line"/>
      <point x="285" y="435" type="line"/>
      <point x="291" y="438"/>
      <point x="295" y="442"/>
      <point x="297" y="451" type="curve"/>
      <point x="300" y="476" type="line"/>
    </contour>
  </outline>
</glyph>
<glyph name="oe" format="1">
  <advance width="775"/>
  <unicode hex="0153"/>
  <note>
    oe
  </note>
  <outline>
    <contour>
      <point x="526" y="505"/>
      <point x="459" y="457"/>
      <point x="420" y="378" type="curve"/>
      <point x="403" y="459"/>
      <point x="357" y="505"/>
      <point x="276" y="505" type="curve" smooth="yes"/>
      <point x="116" y="505"/>
      <point x="27" y="356"/>
      <point x="27" y="169" type="curve" smooth="yes"/>
      <point x="27" y="72"/>
      <point x="77" y="-6"/>
      <point x="180" y="-6" type="curve" smooth="yes"/>
      <point x="275" y="-6"/>
      <point x="350" y="51"/>
      <point x="389" y="141" type="curve"/>
      <point x="405" y="56"/>
      <point x="454" y="-6"/>
      <point x="542" y="-6" type="curve" smooth="yes"/>
      <point x="620" y="-6"/>
      <point x="678" y="26"/>
      <point x="740" y="92" type="curve"/>
      <point x="729" y="105" type="line"/>
      <point x="723" y="111"/>
      <point x="718" y="115"/>
      <point x="706" y="105" type="curve" smooth="yes"/>
      <point x="641" y="53"/>
      <point x="622" y="32"/>
      <point x="550" y="32" type="curve" smooth="yes"/>
      <point x="460" y="32"/>
      <point x="421" y="97"/>
      <point x="421" y="234" type="curve"/>
      <point x="590" y="253"/>
      <point x="743" y="286"/>
      <point x="743" y="397" type="curve" smooth="yes"/>
      <point x="743" y="467"/>
      <point x="685" y="505"/>
      <point x="612" y="505" type="curve" smooth="yes"/>
    </contour>
    <contour>
      <point x="113" y="30"/>
      <point x="74" y="90"/>
      <point x="74" y="172" type="curve" smooth="yes"/>
      <point x="74" y="332"/>
      <point x="138" y="469"/>
      <point x="272" y="469" type="curve" smooth="yes"/>
      <point x="370" y="469"/>
      <point x="399" y="376"/>
      <point x="383" y="253" type="curve" smooth="yes"/>
      <point x="368" y="135"/>
      <point x="303" y="30"/>
      <point x="192" y="30" type="curve" smooth="yes"/>
    </contour>
    <contour>
      <point x="659" y="470"/>
      <point x="704" y="446"/>
      <point x="704" y="396" type="curve" smooth="yes"/>
      <point x="704" y="312"/>
      <point x="573" y="282"/>
      <point x="424" y="264" type="curve"/>
      <point x="438" y="372"/>
      <point x="495" y="470"/>
      <point x="606" y="470" type="curve" smooth="yes"/>
    </contour>
  </outline>
</glyph>
<glyph name="sacute" format="1">
  <advance width="424"/>
  <unicode hex="015B"/>
  <note>
    sacute
  </note>
  <outline>
    <contour>
      <point x="351" y="211"/>
      <point x="342" y="222"/>
      <point x="330" y="232" type="curve" smooth="yes"/>
      <point x="318" y="242"/>
      <point x="305" y="250"/>
      <point x="289" y="256" type="curve" smooth="yes"/>
      <point x="273" y="262"/>
      <point x="257" y="269"/>
      <point x="240" y="274" type="curve" smooth="yes"/>
      <point x="224" y="279"/>
      <point x="208" y="285"/>
      <point x="192" y="290" type="curve" smooth="yes"/>
      <point x="176" y="295"/>
      <point x="162" y="302"/>
      <point x="150" y="309" type="curve" smooth="yes"/>
      <point x="138" y="316"/>
      <point x="128" y="325"/>
      <point x="121" y="335" type="curve" smooth="yes"/>
      <point x="114" y="345"/>
      <point x="112" y="358"/>
      <point x="114" y="374" type="curve" smooth="yes"/>
      <point x="116" y="387"/>
      <point x="120" y="399"/>
      <point x="127" y="410" type="curve" smooth="yes"/>
      <point x="134" y="421"/>
      <point x="144" y="432"/>
      <point x="156" y="441" type="curve" smooth="yes"/>
      <point x="168" y="450"/>
      <point x="181" y="456"/>
      <point x="196" y="461" type="curve" smooth="yes"/>
      <point x="211" y="466"/>
      <point x="228" y="469"/>
      <point x="246" y="469" type="curve" smooth="yes"/>
      <point x="272" y="469"/>
      <point x="298" y="465"/>
      <point x="324" y="456" type="curve"/>
      <point x="323" y="444"/>
      <point x="322" y="432"/>
      <point x="322" y="421" type="curve" smooth="yes"/>
      <point x="322" y="410"/>
      <point x="321" y="402"/>
      <point x="321" y="396" type="curve" smooth="yes"/>
      <point x="321" y="384" type="line"/>
      <point x="320" y="368"/>
      <point x="326" y="360"/>
      <point x="340" y="360" type="curve" smooth="yes"/>
      <point x="364" y="360" type="line"/>
      <point x="379" y="479" type="line"/>
      <point x="329" y="497"/>
      <point x="286" y="505"/>
      <point x="250" y="505" type="curve" smooth="yes"/>
      <point x="225" y="505"/>
      <point x="201" y="501"/>
      <point x="180" y="494" type="curve" smooth="yes"/>
      <point x="159" y="487"/>
      <point x="141" y="477"/>
      <point x="125" y="465" type="curve" smooth="yes"/>
      <point x="109" y="453"/>
      <point x="97" y="438"/>
      <point x="87" y="422" type="curve" smooth="yes"/>
      <point x="77" y="406"/>
      <point x="71" y="389"/>
      <point x="69" y="371" type="curve" smooth="yes"/>
      <point x="66" y="350"/>
      <point x="68" y="333"/>
      <point x="74" y="319" type="curve" smooth="yes"/>
      <point x="80" y="305"/>
      <point x="90" y="294"/>
      <point x="102" y="284" type="curve" smooth="yes"/>
      <point x="114" y="274"/>
      <point x="127" y="266"/>
      <point x="143" y="260" type="curve" smooth="yes"/>
      <point x="159" y="254"/>
      <point x="175" y="248"/>
      <point x="192" y="243" type="curve" smooth="yes"/>
      <point x="209" y="238"/>
      <point x="225" y="232"/>
      <point x="241" y="227" type="curve" smooth="yes"/>
      <point x="257" y="222"/>
      <point x="271" y="215"/>
      <point x="283" y="207" type="curve" smooth="yes"/>
      <point x="295" y="199"/>
      <point x="304" y="190"/>
      <point x="311" y="179" type="curve" smooth="yes"/>
      <point x="318" y="168"/>
      <point x="320" y="155"/>
      <point x="318" y="138" type="curve" smooth="yes"/>
      <point x="316" y="123"/>
      <point x="311" y="109"/>
      <point x="304" y="95" type="curve" smooth="yes"/>
      <point x="297" y="81"/>
      <point x="287" y="70"/>
      <point x="275" y="60" type="curve" smooth="yes"/>
      <point x="263" y="50"/>
      <point x="250" y="42"/>
      <point x="233" y="36" type="curve" smooth="yes"/>
      <point x="216" y="30"/>
      <point x="197" y="27"/>
      <point x="176" y="27" type="curve" smooth="yes"/>
      <point x="138" y="27"/>
      <point x="107" y="32"/>
      <point x="81" y="43" type="curve"/>
      <point x="82" y="56"/>
      <point x="83" y="68"/>
      <point x="83" y="79" type="curve" smooth="yes"/>
      <point x="83" y="105" type="line" smooth="yes"/>
      <point x="83" y="111"/>
      <point x="84" y="116"/>
      <point x="84" y="117" type="curve"/>
      <point x="85" y="133"/>
      <point x="79" y="141"/>
      <point x="65" y="141" type="curve" smooth="yes"/>
      <point x="41" y="141" type="line"/>
      <point x="26" y="20" type="line"/>
      <point x="72" y="2"/>
      <point x="120" y="-8"/>
      <point x="170" y="-8" type="curve" smooth="yes"/>
      <point x="198" y="-8"/>
      <point x="222" y="-4"/>
      <point x="245" y="4" type="curve" smooth="yes"/>
      <point x="268" y="12"/>
      <point x="287" y="23"/>
      <point x="304" y="37" type="curve" smooth="yes"/>
      <point x="321" y="51"/>
      <point x="334" y="66"/>
      <point x="344" y="85" type="curve" smooth="yes"/>
      <point x="354" y="104"/>
      <point x="360" y="124"/>
      <point x="363" y="146" type="curve"/>
      <point x="365" y="166"/>
      <point x="363" y="183"/>
      <point x="357" y="197" type="curve" smooth="yes"/>
    </contour>
    <contour>
      <point x="408" y="716" type="line"/>
      <point x="361" y="716" type="line" smooth="yes"/>
      <point x="353" y="716"/>
      <point x="347" y="714"/>
      <point x="343" y="712" type="curve" smooth="yes"/>
      <point x="339" y="710"/>
      <point x="334" y="706"/>
      <point x="330" y="700" type="curve"/>
      <point x="236" y="581" type="line"/>
      <point x="265" y="581" type="line" smooth="yes"/>
      <point x="269" y="581"/>
      <point x="272" y="581"/>
      <point x="275" y="582" type="curve" smooth="yes"/>
      <point x="278" y="583"/>
      <point x="282" y="586"/>
      <point x="285" y="589" type="curve" smooth="yes"/>
    </contour>
  </outline>
</glyph>
<glyph name="zcaron" format="1">
  <advance width="475"/>
  <unicode hex="017E"/>
  <note>
    zcaron
  </note>
  <outline>
    <contour>
      <point x="392" y="125" type="line" smooth="yes"/>
      <point x="378" y="125"/>
      <point x="370" y="117"/>
      <point x="367" y="101" type="curve"/>
      <point x="367" y="100"/>
      <point x="366" y="97"/>
      <point x="365" y="91" type="curve" smooth="yes"/>
      <point x="364" y="85"/>
      <point x="362" y="78"/>
      <point x="360" y="68" type="curve" smooth="yes"/>
      <point x="358" y="58"/>
      <point x="356" y="48"/>
      <point x="354" y="37" type="curve"/>
      <point x="81" y="37" type="line"/>
      <point x="444" y="458" type="line" smooth="yes"/>
      <point x="449" y="464"/>
      <point x="453" y="470"/>
      <point x="454" y="477" type="curve"/>
      <point x="456" y="497" type="line"/>
      <point x="97" y="497" type="line"/>
      <point x="96" y="493" type="line"/>
      <point x="81" y="368" type="line"/>
      <point x="105" y="368" type="line" smooth="yes"/>
      <point x="119" y="368"/>
      <point x="126" y="376"/>
      <point x="129" y="392" type="curve"/>
      <point x="129" y="393"/>
      <point x="131" y="397"/>
      <point x="132" y="403" type="curve" smooth="yes"/>
      <point x="133" y="409"/>
      <point x="135" y="417"/>
      <point x="137" y="427" type="curve" smooth="yes"/>
      <point x="139" y="437"/>
      <point x="141" y="449"/>
      <point x="143" y="460" type="curve"/>
      <point x="395" y="460" type="line"/>
      <point x="31" y="37" type="line" smooth="yes"/>
      <point x="25" y="30"/>
      <point x="22" y="25"/>
      <point x="21" y="19" type="curve"/>
      <point x="19" y="0" type="line"/>
      <point x="374" y="0" type="line"/>
      <point x="382" y="0" type="line"/>
      <point x="400" y="0" type="line"/>
      <point x="416" y="125" type="line"/>
      <point x="396" y="125" type="line"/>
    </contour>
    <contour>
      <point x="175" y="708" type="line"/>
      <point x="269" y="585" type="line"/>
      <point x="312" y="585" type="line"/>
      <point x="435" y="708" type="line"/>
      <point x="403" y="708" type="line" smooth="yes"/>
      <point x="401" y="708"/>
      <point x="398" y="707"/>
      <point x="395" y="706" type="curve" smooth="yes"/>
      <point x="392" y="705"/>
      <point x="391" y="704"/>
      <point x="389" y="702" type="curve"/>
      <point x="301" y="621" type="line"/>
      <point x="294" y="614" type="line"/>
      <point x="290" y="621" type="line"/>
      <point x="222" y="702" type="line"/>
      <point x="219" y="706"/>
      <point x="214" y="708"/>
      <point x="209" y="708" type="curve" smooth="yes"/>
    </contour>
  </outline>
</glyph>
<glyph name="florin" format="1">
  <advance width="560"/>
  <unicode hex="0192"/>
  <note>
    florin
  </note>
  <outline>
    <contour>
      <point x="334" y="398" type="line"/>
      <point x="515" y="398" type="line"/>
      <point x="519" y="434" type="line"/>
      <point x="340" y="434" type="line"/>
      <point x="364" y="528" type="line" smooth="yes"/>
      <point x="388" y="617"/>
      <point x="441" y="676"/>
      <point x="529" y="676" type="curve" smooth="yes"/>
      <point x="541" y="676"/>
      <point x="546" y="681"/>
      <point x="548" y="691" type="curve"/>
      <point x="552" y="716" type="line"/>
      <point x="423" y="716"/>
      <point x="349" y="652"/>
      <point x="318" y="529" type="curve" smooth="yes"/>
      <point x="294" y="434" type="line"/>
      <point x="181" y="434" type="line"/>
      <point x="178" y="414" type="line" smooth="yes"/>
      <point x="177" y="406"/>
      <point x="181" y="403"/>
      <point x="190" y="402" type="curve"/>
      <point x="285" y="397" type="line"/>
      <point x="190" y="8" type="line" smooth="yes"/>
      <point x="166" y="-82"/>
      <point x="112" y="-140"/>
      <point x="27" y="-140" type="curve" smooth="yes"/>
      <point x="15" y="-140"/>
      <point x="8" y="-145"/>
      <point x="7" y="-156" type="curve" smooth="yes"/>
      <point x="4" y="-180" type="line"/>
      <point x="130" y="-180"/>
      <point x="207" y="-117"/>
      <point x="237" y="7" type="curve" smooth="yes"/>
    </contour>
  </outline>
</glyph>
<glyph name="uni02C9" format="1">
  <advance width="398"/>
  <unicode hex="02C9"/>
  <note>
    uni02C9
  </note>
  <outline>
    <contour>
      <point x="71" y="658" type="line"/>
      <point x="68" y="626" type="line"/>
      <point x="340" y="626" type="line"/>
      <point x="344" y="658" type="line"/>
    </contour>
  </outline>
</glyph>
<glyph name="breve" format="1">
  <advance width="365"/>
  <unicode hex="02D8"/>
  <note>
    breve
  </note>
  <outline>
    <contour>
      <point x="302" y="584"/>
      <point x="350" y="630"/>
      <point x="359" y="708" type="curve"/>
      <point x="324" y="708" type="line"/>
      <point x="315" y="654"/>
      <point x="290" y="616"/>
      <point x="228" y="616" type="curve" smooth="yes"/>
      <point x="172" y="616"/>
      <point x="146" y="653"/>
      <point x="154" y="708" type="curve"/>
      <point x="119" y="708" type="line"/>
      <point x="111" y="633"/>
      <point x="143" y="584"/>
      <point x="224" y="584" type="curve" smooth="yes"/>
    </contour>
  </outline>
</glyph>
<glyph name="dieresiscomb" format="1">
  <advance width="377"/>
  <unicode hex="0308"/>
  <outline>
    <component base="dieresis"/>
    <contour>
      <point x="245" y="716" type="move" name="top"/>
    </contour>
    <contour>
      <point x="219" y="498" type="move" name="_top"/>
    </contour>
  </outline>
</glyph>
<glyph name="caroncomb" format="1">
  <advance width="369"/>
  <unicode hex="030C"/>
  <note>
    caron
  </note>
  <outline>
    <contour>
      <point x="64" y="708" type="line"/>
      <point x="157" y="584" type="line"/>
      <point x="200" y="584" type="line"/>
      <point x="324" y="708" type="line"/>
      <point x="291" y="708" type="line" smooth="yes"/>
      <point x="289" y="708"/>
      <point x="287" y="707"/>
      <point x="284" y="706" type="curve" smooth="yes"/>
      <point x="281" y="705"/>
      <point x="279" y="704"/>
      <point x="277" y="702" type="curve"/>
      <point x="189" y="620" type="line"/>
      <point x="183" y="614" type="line"/>
      <point x="178" y="620" type="line"/>
      <point x="110" y="702" type="line"/>
      <point x="107" y="706"/>
      <point x="102" y="708"/>
      <point x="97" y="708" type="curve" smooth="yes"/>
    </contour>
    <contour>
      <point x="194" y="708" type="move" name="top"/>
    </contour>
    <contour>
      <point x="194" y="498" type="move" name="_top"/>
    </contour>
  </outline>
</glyph>
<glyph name="commaaccentcomb" format="1">
  <advance width="226"/>
  <unicode hex="0326"/>
  <outline>
    <component base="comma" xOffset="-41" yOffset="-135"/>
    <contour>
      <point x="84" y="0" type="move" name="_bottom"/>
    </contour>
    <contour>
      <point x="52" y="-261" type="move" name="bottom"/>
    </contour>
  </outline>
</glyph>
<glyph name="emdash" format="1">
  <advance width="776"/>
  <unicode hex="2014"/>
  <note>
    emdash
  </note>
  <outline>
    <contour>
      <point x="67" y="307" type="line"/>
      <point x="63" y="272" type="line"/>
      <point x="712" y="272" type="line"/>
      <point x="716" y="307" type="line"/>
    </contour>
  </outline>
</glyph>
<glyph name="quotedblright" format="1">
  <advance width="338"/>
  <unicode hex="201D"/>
  <note>
    quotedblright
  </note>
  <outline>
    <contour>
      <point x="111" y="727" type="line" smooth="yes"/>
      <point x="103" y="724"/>
      <point x="100" y="717"/>
      <point x="103" y="709" type="curve"/>
      <point x="112" y="689"/>
      <point x="116" y="668"/>
      <point x="114" y="649" type="curve" smooth="yes"/>
      <point x="110" y="615"/>
      <point x="85" y="578"/>
      <point x="57" y="546" type="curve"/>
      <point x="52" y="540"/>
      <point x="53" y="533"/>
      <point x="58" y="530" type="curve"/>
      <point x="69" y="523" type="line"/>
      <point x="109" y="558"/>
      <point x="148" y="609"/>
      <point x="154" y="664" type="curve"/>
      <point x="158" y="688"/>
      <point x="153" y="717"/>
      <point x="143" y="739" type="curve"/>
    </contour>
    <contour>
      <point x="245" y="727" type="line" smooth="yes"/>
      <point x="237" y="724"/>
      <point x="234" y="717"/>
      <point x="237" y="709" type="curve"/>
      <point x="246" y="689"/>
      <point x="250" y="668"/>
      <point x="248" y="649" type="curve" smooth="yes"/>
      <point x="244" y="615"/>
      <point x="219" y="578"/>
      <point x="191" y="546" type="curve"/>
      <point x="186" y="540"/>
      <point x="187" y="533"/>
      <point x="192" y="530" type="curve"/>
      <point x="203" y="523" type="line"/>
      <point x="243" y="558"/>
      <point x="282" y="609"/>
      <point x="288" y="664" type="curve"/>
      <point x="292" y="688"/>
      <point x="287" y="717"/>
      <point x="277" y="739" type="curve"/>
    </contour>
  </outline>
</glyph>
<glyph name="radical" format="1">
  <advance width="681"/>
  <unicode hex="221A"/>
  <note>
    radical
  </note>
  <outline>
    <contour>
      <point x="153" y="345" type="line"/>
      <point x="244" y="0" type="line"/>
      <point x="284" y="0" type="line"/>
      <point x="668" y="860" type="line"/>
      <point x="639" y="860" type="line" smooth="yes"/>
      <point x="631" y="860"/>
      <point x="624" y="855"/>
      <point x="621" y="848" type="curve"/>
      <point x="284" y="93" type="line"/>
      <point x="279" y="80"/>
      <point x="276" y="67"/>
      <point x="272" y="55" type="curve"/>
      <point x="272" y="67"/>
      <point x="270" y="83"/>
      <point x="267" y="98" type="curve"/>
      <point x="197" y="368" type="line"/>
      <point x="194" y="376"/>
      <point x="189" y="380"/>
      <point x="180" y="380" type="curve" smooth="yes"/>
      <point x="23" y="380" type="line"/>
      <point x="21" y="366" type="line" smooth="yes"/>
      <point x="19" y="354"/>
      <point x="26" y="345"/>
      <point x="38" y="345" type="curve" smooth="yes"/>
    </contour>
  </outline>
</glyph>
<glyph name="a.sc" format="1">
  <advance width="600"/>
  <outline>
    <contour>
      <point x="103" y="0" type="line"/>
      <point x="183" y="152" type="line"/>
      <point x="399" y="152" type="line"/>
      <point x="441" y="0" type="line"/>
      <point x="493" y="0" type="line"/>
      <point x="351" y="498" type="line"/>
      <point x="315" y="498" type="line"/>
      <point x="48" y="0" type="line"/>
    </contour>
    <contour>
      <point x="315" y="414" type="line"/>
      <point x="328" y="444" type="line"/>
      <point x="335" y="415" type="line"/>
      <point x="391" y="190" type="line"/>
      <point x="199" y="190" type="line"/>
    </contour>
    <component base="serifBottom" xOffset="-22" xScale="0.704" yScale="0.704"/>
    <component base="serifBottom" xOffset="352" xScale="0.704" yScale="0.704"/>
    <contour>
      <point x="492" y="7" type="move" name="ogonek"/>
    </contour>
  </outline>
</glyph>
<glyph name="brevecomb.case" format="1">
  <advance width="419"/>
  <note>
    breve.case
  </note>
  <outline>
    <contour>
      <point x="273" y="584"/>
      <point x="321" y="630"/>
      <point x="330" y="708" type="curve"/>
      <point x="295" y="708" type="line"/>
      <point x="286" y="654"/>
      <point x="261" y="616"/>
      <point x="199" y="616" type="curve" smooth="yes"/>
      <point x="143" y="616"/>
      <point x="117" y="653"/>
      <point x="125" y="708" type="curve"/>
      <point x="90" y="708" type="line"/>
      <point x="82" y="633"/>
      <point x="114" y="584"/>
      <point x="195" y="584" type="curve" smooth="yes"/>
    </contour>
    <contour>
      <point x="211" y="708" type="move" name="top"/>
    </contour>
    <contour>
      <point x="197" y="498" type="move" name="_top"/>
    </contour>
  </outline>
</glyph>
<glyph name="dotaccentcomb.case" format="1">
  <advance width="265"/>
  <note>
    dotaccent.case
  </note>
  <outline>
    <contour>
      <point x="153" y="628"/>
      <point x="177" y="648"/>
      <point x="178" y="672" type="curve" smooth="yes"/>
      <point x="181" y="695"/>
      <point x="164" y="716"/>
      <point x="140" y="716" type="curve" smooth="yes"/>
      <point x="116" y="716"/>
      <point x="92" y="695"/>
      <point x="90" y="672" type="curve" smooth="yes"/>
      <point x="88" y="648"/>
      <point x="105" y="628"/>
      <point x="129" y="628" type="curve" smooth="yes"/>
    </contour>
    <contour>
      <point x="134" y="716" type="move" name="top"/>
    </contour>
    <contour>
      <point x="134" y="541" type="move" name="_top"/>
    </contour>
  </outline>
</glyph>
